<?xml version="1.0" encoding="UTF-8" standalone="no"?>
<svg xmlns:inkscape="http://www.inkscape.org/namespaces/inkscape" xmlns:sodipodi="http://sodipodi.sourceforge.net/DTD/sodipodi-0.dtd" xmlns="http://www.w3.org/2000/svg" xmlns:svg="http://www.w3.org/2000/svg" version="1.1" x="0px" y="0px" viewBox="0 0 459.99998 284" xml:space="preserve" id="svg230" sodipodi:docname="LOGO_WARR_blue_text.svg" width="460" height="284" inkscape:version="1.2.2 (732a01da63, 2022-12-09)"><defs id="defs234"></defs>
<style type="text/css" id="style208">
	.st0{fill:#0761B0;}
	.st1{fill:#6AB2E1;}
	.st2{fill:#9BDAFA;}
</style>


<g id="WARR_Font" transform="matrix(1.9554982,0,0,1.9554982,8.7184058,75.37023)" style="stroke-width:0.511379"><path class="cls-1" d="m 112.24,22 -6,18.66 h -5.65 L 97,29.34 93.24,40.7 H 87.59 L 81.54,22 H 87 l 3.73,12 4,-11.91 h 4.85 l 3.76,12 3.92,-12 z" transform="translate(-5.21,-8.22)" id="path45" style="fill:#0761b0;stroke-width:0.511379"></path><path class="cls-1" d="m 126,37.07 h -7.89 l -1.47,3.63 h -5.38 L 119.49,22 h 5.2 L 133,40.7 h -5.5 z m -1.55,-3.89 -2.4,-6 -2.4,6 z" transform="translate(-5.21,-8.22)" id="path47" style="fill:#0761b0;stroke-width:0.511379"></path><path class="cls-1" d="m 142.6,35.74 h -2.87 v 5 h -5.28 V 22 H 143 a 10.66,10.66 0 0 1 4.4,0.84 6.77,6.77 0 0 1 2.94,9.59 6.37,6.37 0 0 1 -2.7,2.36 l 4,5.87 H 146 Z m 2.51,-8.83 a 3.64,3.64 0 0 0 -2.45,-0.71 h -2.93 v 5.46 h 2.93 a 3.69,3.69 0 0 0 2.45,-0.71 2.5,2.5 0 0 0 0.83,-2 2.56,2.56 0 0 0 -0.83,-2.04 z" transform="translate(-5.21,-8.22)" id="path49" style="fill:#0761b0;stroke-width:0.511379"></path><path class="cls-1" d="m 162.33,35.74 h -2.88 v 5 h -5.28 V 22 h 8.53 a 10.63,10.63 0 0 1 4.4,0.84 6.31,6.31 0 0 1 3.9,6.1 6.19,6.19 0 0 1 -3.65,5.89 l 4,5.87 h -5.65 z m 2.5,-8.83 a 3.62,3.62 0 0 0 -2.45,-0.71 h -2.93 v 5.46 h 2.93 a 3.67,3.67 0 0 0 2.45,-0.71 2.5,2.5 0 0 0 0.83,-2 2.56,2.56 0 0 0 -0.83,-2.04 z" transform="translate(-5.21,-8.22)" id="path51" style="fill:#0761b0;stroke-width:0.511379"></path></g><g id="Logo" transform="matrix(1.9554982,0,0,1.9554982,8.7184058,98.836208)" style="stroke-width:0.511379"><path class="cls-1" d="M 28,8.22 5.21,31 28,53.73 50.72,31 Z M 28,47 11.9,31 28,14.91 44,31 Z" transform="translate(-5.21,-8.22)" id="path54" style="fill:#0761b0;stroke-width:0.511379"></path><polygon class="cls-2" points="49.65,22.75 30.24,3.35 33.59,0 56.34,22.75 33.59,45.51 30.24,42.16 " id="polygon56" style="fill:#6ab2e1;stroke-width:0.511379"></polygon><polygon class="cls-2" points="22.75,34.67 10.83,22.75 22.75,10.83 26.1,14.18 17.52,22.75 26.1,31.33 " id="polygon58" style="fill:#6ab2e1;stroke-width:0.511379"></polygon><polygon class="cls-3" points="28.17,29.26 21.67,22.75 28.17,16.25 31.52,19.59 28.36,22.75 31.52,25.91 " id="polygon60" style="fill:#9bdafa;stroke-width:0.511379"></polygon><polygon class="cls-3" points="60.49,22.75 41.08,3.35 44.42,0 67.17,22.75 44.42,45.51 41.08,42.16 " id="polygon62" style="fill:#9bdafa;stroke-width:0.511379"></polygon></g><text xml:space="preserve" style="font-size:14.3403px;line-height:1.25;font-family:Montserrat;-inkscape-font-specification:Montserrat;letter-spacing:0px;word-spacing:0px;fill:#0761b0;fill-opacity:1;stroke-width:1" x="162.13571" y="159.98323" id="text283"><tspan sodipodi:role="line" id="tspan281" x="162.13571" y="159.98323" style="font-size:14.3403px;stroke-width:1">Wissenschaftliche Arbeitsgemeinschaft</tspan><tspan sodipodi:role="line" x="162.13571" y="177.9086" id="tspan335" style="font-size:14.3403px;stroke-width:1">für Raketentechnik und Raumfahrt</tspan></text></svg>
